<svg width="368" height="92" viewBox="0 0 368 92" fill="none" xmlns="http://www.w3.org/2000/svg">
<g clip-path="url(#clip0_49_128)">
<path d="M7.33678 36.3216L12.5492 56.4027C13.688 60.792 14.7393 64.896 15.4839 68.9781H15.7248C16.6227 64.9838 17.9149 60.7481 19.2289 56.4027L25.6678 36.3216H31.6905L37.8009 56.0735C39.2682 60.8139 40.4071 64.9838 41.305 68.9781H41.6116C42.3722 64.653 43.3739 60.3741 44.612 56.1613L50.2405 36.4094H57.3364L44.612 75.9132H38.0418L32.019 57.0611C30.6393 52.6718 29.5004 48.7433 28.5149 44.0907H28.4711C27.4835 48.4809 26.2478 52.8114 24.7699 57.0611L18.4186 75.8474H11.8484L0 36.3216H7.33678Z" fill="#47585B"/>
<path d="M99.3642 55.7662C99.3642 70.3826 89.2679 76.7471 79.6534 76.7471C68.9658 76.7471 60.7311 68.9122 60.7311 56.4027C60.7311 43.2347 69.3819 35.4218 80.2885 35.4218C91.6989 35.4218 99.3642 43.6737 99.3642 55.7662ZM68.0679 56.1613C68.0679 64.8302 73.0394 71.3483 80.0476 71.3483C87.0559 71.3483 92.0274 64.896 92.0274 55.9857C92.0274 49.292 88.6985 40.7987 80.2228 40.7987C71.7472 40.7987 68.0679 48.6555 68.0679 56.1613Z" fill="#47585B"/>
<path d="M108.431 48.6555C108.431 44.0029 108.431 39.8769 108.103 36.3216H114.388L114.629 44.0687H114.958C115.636 41.6525 117.062 39.514 119.029 37.9604C120.997 36.4068 123.405 35.5181 125.908 35.4218C126.594 35.4143 127.279 35.4954 127.945 35.6632V42.4447C127.146 42.2761 126.33 42.1951 125.514 42.2032C120.455 42.2032 116.863 46.0439 115.899 51.4208C115.671 52.5557 115.547 53.709 115.527 54.8664V75.9351H108.431V48.6555Z" fill="#47585B"/>
<path d="M135.435 17.8645H142.596V75.8474H135.435V17.8645Z" fill="#47585B"/>
<path d="M188.72 17.8645V65.6422C188.72 69.1536 188.72 73.1479 189.048 75.8473H182.609L182.303 68.978H182.127C180.849 71.4293 178.903 73.4667 176.514 74.8536C174.126 76.2405 171.395 76.9199 168.637 76.813C159.11 76.813 151.773 68.7366 151.773 56.7319C151.773 43.5639 159.832 35.4876 169.447 35.4876C171.79 35.3353 174.13 35.8148 176.226 36.8762C178.321 37.9376 180.094 39.5421 181.361 41.5229H181.514V17.8645H188.72ZM181.558 52.4084C181.568 51.3894 181.458 50.3728 181.23 49.3798C180.716 47.0055 179.4 44.8815 177.505 43.3662C175.61 41.8509 173.251 41.0371 170.827 41.062C163.402 41.062 159 47.646 159 56.4246C159 64.4132 162.92 71.041 170.651 71.041C173.119 71.0334 175.51 70.177 177.423 68.6151C179.337 67.0531 180.657 64.8803 181.164 62.4599C181.431 61.4131 181.564 60.3363 181.558 59.2557V52.4084Z" fill="#47585B"/>
<path d="M209.285 26.8407V36.3216H219.556V41.6985H209.285V63.0086C209.285 67.9246 210.686 70.6899 214.672 70.6899C216.076 70.7474 217.48 70.5845 218.833 70.207L219.162 75.5839C217.123 76.3383 214.961 76.7031 212.789 76.6593C211.352 76.7328 209.916 76.4921 208.581 75.9539C207.246 75.4158 206.044 74.5931 205.058 73.5429C203.021 71.3483 202.276 67.9246 202.276 63.2719V41.6985H196.166V36.3216H202.276V29.0573L209.285 26.8407Z" fill="#FFBA08"/>
<path d="M227.637 48.6555C227.637 44.0029 227.637 39.8769 227.309 36.3216H233.594L233.835 44.0687H234.164C234.843 41.6525 236.268 39.514 238.236 37.9604C240.203 36.4068 242.611 35.5181 245.114 35.4218C245.801 35.4143 246.485 35.4954 247.151 35.6632V42.4447C246.352 42.2761 245.537 42.1951 244.72 42.2032C239.661 42.2032 235.96 46.0439 235.106 51.4208C234.898 52.5282 234.788 53.6518 234.777 54.7786V75.8473H227.681L227.637 48.6555Z" fill="#FFBA08"/>
<path d="M262.613 25.2166C262.613 26.3982 262.145 27.5314 261.311 28.3669C260.477 29.2024 259.346 29.6718 258.167 29.6718C256.988 29.6718 255.857 29.2024 255.023 28.3669C254.19 27.5314 253.721 26.3982 253.721 25.2166C253.706 24.6217 253.812 24.0299 254.032 23.4772C254.253 22.9246 254.583 22.4226 255.003 22.0017C255.423 21.5809 255.924 21.2501 256.475 21.0293C257.027 20.8086 257.617 20.7025 258.211 20.7175C258.797 20.7144 259.378 20.8293 259.92 21.0554C260.461 21.2815 260.951 21.6142 261.362 22.0338C261.773 22.4534 262.095 22.9513 262.31 23.498C262.525 24.0448 262.628 24.6292 262.613 25.2166ZM254.619 75.8474V36.3435H261.803V75.8474H254.619Z" fill="#FFBA08"/>
<path d="M273.761 49.2261C273.761 44.1565 273.585 40.0744 273.432 36.3216H279.871L280.178 43.1031H280.331C281.75 40.6669 283.805 38.6645 286.274 37.3111C288.744 35.9577 291.535 35.3045 294.347 35.4218C303.874 35.4218 311.058 43.4981 311.058 55.5029C311.058 69.7242 302.298 76.7471 293.121 76.7471C290.735 76.8526 288.363 76.3358 286.236 75.2471C284.109 74.1584 282.301 72.5352 280.988 70.5363H280.813V92H273.761V49.2261ZM280.835 59.7605C280.86 60.7484 280.97 61.7323 281.163 62.7013C281.764 65.1032 283.148 67.2351 285.097 68.758C287.045 70.281 289.445 71.1077 291.916 71.1069C299.494 71.1069 303.896 64.896 303.896 55.7443C303.896 47.8216 299.735 41.062 292.157 41.062C289.626 41.1338 287.191 42.0455 285.233 43.6542C283.275 45.2629 281.905 47.4774 281.338 49.9504C281.038 50.9031 280.868 51.8925 280.835 52.8912V59.7605Z" fill="#FFBA08"/>
<path d="M-2.19009 70.5582C200.393 89.4322 319.533 36.3216 319.533 36.3216C319.533 36.3216 235.763 95.9943 -5.27811 84.4284" fill="#F5F8FA"/>
<path d="M202.364 65.8397C275.973 54.5372 316.248 36.541 316.248 36.541C316.248 36.541 274.637 65.0716 205.43 74.1355" stroke="#FFBA08" stroke-miterlimit="10"/>
<path d="M10.7752 72.0945C74.6678 77.3145 138.946 75.216 202.364 65.8397" stroke="#47585B" stroke-miterlimit="10"/>
<path d="M349.231 45.0563C348.092 37.9017 347.041 31.1422 345.924 24.0973L344.128 25.5678C340.129 29.1022 335.53 31.8896 330.55 33.7977C329.767 34.1419 328.91 34.2859 328.058 34.217C327.206 34.148 326.384 33.8682 325.666 33.4027C322.578 31.4275 319.38 29.584 316.205 27.6966C316.68 26.9996 317.347 26.455 318.124 26.128C318.901 25.8011 319.755 25.7056 320.585 25.8531C323.087 26.1202 325.602 26.2447 328.119 26.2262C328.909 26.2138 329.675 25.9527 330.309 25.48C339.069 18.0181 347.829 10.527 356.59 3.00668C358.866 0.998629 361.815 -0.075069 364.846 1.8666e-06C367.562 1.8666e-06 368.701 1.79962 367.54 4.38932C366.899 5.68765 366.014 6.85004 364.934 7.81298C362.372 10.1613 359.7 12.3779 357.028 14.5945C356.681 14.85 356.395 15.1794 356.191 15.5588C355.986 15.9383 355.868 16.3585 355.845 16.7891C355.276 24.2071 354.575 31.625 354.005 39.0429C354 39.7942 353.812 40.5329 353.457 41.1946C353.102 41.8564 352.591 42.4211 351.969 42.8397C351.018 43.5304 350.105 44.2702 349.231 45.0563Z" fill="#47585B"/>
<path d="M325.096 13.8702C327.133 12.1145 328.557 9.83207 331.842 10.3368C335.127 10.8416 338.412 10.8636 341.872 11.105L342.989 11.2586C340.493 13.4532 338.215 15.2968 335.915 17.2061C335.784 17.3015 335.635 17.3684 335.476 17.4024C335.318 17.4364 335.154 17.4369 334.995 17.4036C331.929 16.438 328.863 15.4504 325.819 14.4408C325.6 14.375 325.447 14.1555 325.096 13.8702Z" fill="#47585B"/>
</g>
<defs>
<clipPath id="clip0_49_128">
<rect width="368" height="92" fill="white"/>
</clipPath>
</defs>
</svg>
